<svg width="16" height="16" viewBox="0 0 16 16" fill="none" xmlns="http://www.w3.org/2000/svg">
<g filter="url(#filter0_d_2_233)">
<path d="M16 8C16 10.1217 15.1571 12.1566 13.6569 13.6569C12.1566 15.1571 10.1217 16 8 16C5.87827 16 3.84344 15.1571 2.34315 13.6569C0.842855 12.1566 0 10.1217 0 8C0 5.87827 0.842855 3.84344 2.34315 2.34315C3.84344 0.842855 5.87827 0 8 0C10.1217 0 12.1566 0.842855 13.6569 2.34315C15.1571 3.84344 16 5.87827 16 8V8ZM8 4C7.87361 4.00007 7.74863 4.02662 7.63312 4.07793C7.51761 4.12924 7.41413 4.20418 7.32934 4.29791C7.24456 4.39165 7.18035 4.5021 7.14084 4.62217C7.10134 4.74223 7.08743 4.86923 7.1 4.995L7.45 8.502C7.46176 8.63977 7.5248 8.76811 7.62664 8.86164C7.72849 8.95516 7.86173 9.00705 8 9.00705C8.13827 9.00705 8.27151 8.95516 8.37336 8.86164C8.4752 8.76811 8.53824 8.63977 8.55 8.502L8.9 4.995C8.91257 4.86923 8.89866 4.74223 8.85915 4.62217C8.81965 4.5021 8.75544 4.39165 8.67066 4.29791C8.58587 4.20418 8.48239 4.12924 8.36688 4.07793C8.25137 4.02662 8.12639 4.00007 8 4V4ZM8.002 10C7.73678 10 7.48243 10.1054 7.29489 10.2929C7.10736 10.4804 7.002 10.7348 7.002 11C7.002 11.2652 7.10736 11.5196 7.29489 11.7071C7.48243 11.8946 7.73678 12 8.002 12C8.26722 12 8.52157 11.8946 8.70911 11.7071C8.89664 11.5196 9.002 11.2652 9.002 11C9.002 10.7348 8.89664 10.4804 8.70911 10.2929C8.52157 10.1054 8.26722 10 8.002 10Z" fill="#495057"/>
<path d="M6.95217 8.54866L6.60248 5.04472C6.60248 5.0447 6.60247 5.04468 6.60247 5.04465C6.58297 4.84943 6.60457 4.65228 6.66589 4.46591C6.72721 4.27951 6.8269 4.10803 6.95853 3.9625C7.09016 3.81698 7.25081 3.70064 7.43014 3.62098C7.60947 3.54132 7.80349 3.50011 7.99972 3.5L8 4L8.00028 3.5C8.19651 3.50011 8.39053 3.54132 8.56986 3.62098C8.74919 3.70064 8.90984 3.81698 9.04147 3.9625C9.1731 4.10803 9.27279 4.27951 9.33411 4.46591C9.39543 4.6523 9.41704 4.84947 9.39752 5.04472M6.95217 8.54866L8.9 4.995M6.95217 8.54866C6.97549 8.80966 7.09538 9.05262 7.28846 9.22992C7.45972 9.38719 7.67756 9.48269 7.90747 9.50298M6.95217 8.54866L8.09417 9.50283M9.39752 5.04472L9.39753 5.04465L8.9 4.995M9.39752 5.04472L8.9 4.995M9.39752 5.04472L9.04783 8.54866M8.9 4.995L8.55 8.502M9.04783 8.54866C9.04795 8.54728 9.04807 8.5459 9.04819 8.54452L8.55 8.502M9.04783 8.54866C9.02451 8.80965 8.90462 9.05262 8.71154 9.22992C8.54069 9.38681 8.32348 9.48223 8.09417 9.50283M9.04783 8.54866L9.04753 8.55165L8.55 8.502M8.55 8.502C8.53824 8.63977 8.4752 8.76811 8.37336 8.86164C8.27151 8.95516 8.13827 9.00705 8 9.00705C7.86173 9.00705 7.72849 8.95516 7.62664 8.86164C7.5248 8.76811 7.46176 8.63977 7.45 8.502L8.09417 9.50283M8.09417 9.50283C8.06357 9.50095 8.03284 9.5 8.002 9.5C8.00133 9.5 8.00067 9.5 8 9.5C7.96905 9.50004 7.93819 9.50104 7.90747 9.50298M8.09417 9.50283C8.45837 9.52524 8.80316 9.67984 9.06266 9.93934C9.34396 10.2206 9.502 10.6022 9.502 11C9.502 11.3978 9.34396 11.7794 9.06266 12.0607C8.78136 12.342 8.39983 12.5 8.002 12.5C7.60417 12.5 7.22264 12.342 6.94134 12.0607C6.66004 11.7794 6.502 11.3978 6.502 11C6.502 10.6022 6.66004 10.2206 6.94134 9.93934C7.20028 9.6804 7.54415 9.5259 7.90747 9.50298M8.09417 9.50283C8.06364 9.50558 8.03288 9.50699 8.002 9.50705C8.00133 9.50705 8.00067 9.50705 8 9.50705C7.969 9.50705 7.93813 9.50568 7.90747 9.50298M15.5 8C15.5 9.98912 14.7098 11.8968 13.3033 13.3033C11.8968 14.7098 9.98912 15.5 8 15.5C6.01088 15.5 4.10322 14.7098 2.6967 13.3033C1.29018 11.8968 0.5 9.98912 0.5 8C0.5 6.01088 1.29018 4.10322 2.6967 2.6967C4.10322 1.29018 6.01088 0.5 8 0.5C9.98912 0.5 11.8968 1.29018 13.3033 2.6967C14.7098 4.10322 15.5 6.01088 15.5 8Z" stroke="black"/>
</g>
<defs>
<filter id="filter0_d_2_233" x="-4" y="0" width="24" height="24" filterUnits="userSpaceOnUse" color-interpolation-filters="sRGB">
<feFlood flood-opacity="0" result="BackgroundImageFix"/>
<feColorMatrix in="SourceAlpha" type="matrix" values="0 0 0 0 0 0 0 0 0 0 0 0 0 0 0 0 0 0 127 0" result="hardAlpha"/>
<feOffset dy="4"/>
<feGaussianBlur stdDeviation="2"/>
<feComposite in2="hardAlpha" operator="out"/>
<feColorMatrix type="matrix" values="0 0 0 0 0 0 0 0 0 0 0 0 0 0 0 0 0 0 0.25 0"/>
<feBlend mode="normal" in2="BackgroundImageFix" result="effect1_dropShadow_2_233"/>
<feBlend mode="normal" in="SourceGraphic" in2="effect1_dropShadow_2_233" result="shape"/>
</filter>
</defs>
</svg>
